HIERARCHY
ROOT SpineBase
{
  OFFSET 0.000000 0.000000 0.000000
  CHANNELS 6 Xposition Yposition Zposition Zrotation Xrotation Yrotation
  JOINT SpineMid
  {
    OFFSET 0.000000 34.031684 0.000000
    CHANNELS 3 Zrotation Xrotation Yrotation
    JOINT SpineShoulder
    {
      OFFSET -0.241079 25.075537 -0.919002
      CHANNELS 3 Zrotation Xrotation Yrotation
      JOINT Neck
      {
        OFFSET -0.153301 8.254630 -0.673492
        CHANNELS 3 Zrotation Xrotation Yrotation
        JOINT Head
        {
          OFFSET 1.625184 11.878517 5.394217
          CHANNELS 3 Zrotation Xrotation Yrotation
          End Site
          {
            OFFSET 0 0 0
          }
        }
      }
      JOINT ShoulderLeft
      {
        OFFSET -16.176512 3.014040 16.329287
        CHANNELS 3 Zrotation Xrotation Yrotation
        JOINT ElbowLeft
        {
          OFFSET -2.422486 -15.913361 -24.710355
          CHANNELS 3 Zrotation Xrotation Yrotation
          JOINT WristLeft
          {
            OFFSET -1.584810 -23.705812 13.368067
            CHANNELS 3 Zrotation Xrotation Yrotation
            JOINT HandLeft
            {
              OFFSET -1.025521 -0.963969 -8.411515
              CHANNELS 3 Zrotation Xrotation Yrotation
              JOINT HandTipLeft
              {
                OFFSET -1.509391 -5.142639 -0.701643
                CHANNELS 3 Zrotation Xrotation Yrotation
                End Site
                {
                  OFFSET 0 0 0
                }
              }
              JOINT ThumbLeft
              {
                OFFSET 1.112401 2.584128 -5.484827
                CHANNELS 3 Zrotation Xrotation Yrotation
                End Site
                {
                  OFFSET 0 0 0
                }
              }
            }
          }
        }
      }
      JOINT ShoulderRight
      {
        OFFSET -3.410830 -5.931131 -14.022007
        CHANNELS 3 Zrotation Xrotation Yrotation
        JOINT ElbowRight
        {
          OFFSET -11.510324 -25.545679 -5.852365
          CHANNELS 3 Zrotation Xrotation Yrotation
          JOINT WristRight
          {
            OFFSET -10.121830 -22.238477 2.722749
            CHANNELS 3 Zrotation Xrotation Yrotation
            JOINT HandRight
            {
              OFFSET -1.955201 -8.615434 3.429410
              CHANNELS 3 Zrotation Xrotation Yrotation
              JOINT HandTipRight
              {
                OFFSET -3.821197 -7.749472 0.814475
                CHANNELS 3 Zrotation Xrotation Yrotation
                End Site
                {
                  OFFSET 0 0 0
                }
              }
              JOINT ThumbRight
              {
                OFFSET 5.643546 -1.214525 -1.441453
                CHANNELS 3 Zrotation Xrotation Yrotation
                End Site
                {
                  OFFSET 0 0 0
                }
              }
            }
          }
        }
      }
    }
  }
  JOINT HipLeft
  {
    OFFSET -3.013519 1.038550 -0.079229
    CHANNELS 3 Zrotation Xrotation Yrotation
    JOINT KneeLeft
    {
      OFFSET -14.030549 -40.560217 -12.280591
      CHANNELS 3 Zrotation Xrotation Yrotation
      JOINT AnkleLeft
      {
        OFFSET -3.241549 -35.366703 -1.961574
        CHANNELS 3 Zrotation Xrotation Yrotation
        JOINT FootLeft
        {
          OFFSET -2.412552 -0.247747 10.764434
          CHANNELS 3 Zrotation Xrotation Yrotation
          End Site
          {
            OFFSET 0 0 0
          }
        }
      }
    }
  }
  JOINT HipRight
  {
    OFFSET 1.306510 1.323299 -6.859446
    CHANNELS 3 Zrotation Xrotation Yrotation
    JOINT KneeRight
    {
      OFFSET -18.767417 -35.772768 -4.869921
      CHANNELS 3 Zrotation Xrotation Yrotation
      JOINT AnkleRight
      {
        OFFSET -1.899581 -38.810035 -4.627178
        CHANNELS 3 Zrotation Xrotation Yrotation
        JOINT FootRight
        {
          OFFSET -5.318814 -7.698963 0.352499
          CHANNELS 3 Zrotation Xrotation Yrotation
          End Site
          {
            OFFSET 0 0 0
          }
        }
      }
    }
  }
}
MOTION
Frames: 12
Frame Time: 0.033333
55.081835 80.958467 225.348086 -0.000000 0.000000 57.496667 -0.000000 -0.000000 -57.496667 -0.000000 0.000000 0.000000 -0.000000 0.000000 0.000000 0.000000 0.000000 0.000000 -0.000000 0.000000 0.000000 -0.000000 0.000000 0.000000 -0.000000 0.000000 0.000000 -0.000000 0.000000 0.000000 0.000000 0.000000 0.000000 0.000000 0.000000 0.000000 -0.000000 0.000000 0.000000 -0.000000 0.000000 0.000000 -0.000000 0.000000 0.000000 -0.000000 0.000000 0.000000 0.000000 0.000000 0.000000 0.000000 0.000000 0.000000 -0.000000 -0.000000 -57.496667 -0.000000 0.000000 0.000000 -0.000000 0.000000 0.000000 0.000000 0.000000 0.000000 -0.000000 -0.000000 -57.496667 -0.000000 0.000000 0.000000 -0.000000 0.000000 0.000000 0.000000 0.000000 0.000000
55.228108 81.134008 225.294961 0.163647 -0.074797 57.958003 -0.023419 0.178399 -57.957860 -0.000000 0.000000 0.000000 -0.000000 0.000000 0.000000 0.000000 0.000000 0.000000 -0.000000 0.000000 0.000000 -0.000000 0.000000 0.000000 -0.000000 0.000000 0.000000 -0.427985 -1.878395 0.603428 0.000000 0.000000 0.000000 0.000000 0.000000 0.000000 -0.000000 0.000000 0.000000 -0.000000 0.000000 0.000000 -0.000000 0.000000 0.000000 -0.000000 0.000000 0.000000 0.000000 0.000000 0.000000 0.000000 0.000000 0.000000 -0.023419 0.178399 -57.957860 -0.496309 -0.824430 0.099522 0.818138 2.187354 1.010468 0.000000 0.000000 0.000000 -0.023419 0.178399 -57.957860 -0.000000 0.000000 0.000000 -8.517817 -0.870829 0.138868 0.000000 0.000000 0.000000
55.353498 81.283506 225.250338 0.301898 -0.150654 58.320855 -0.030340 0.336033 -58.320369 -0.000000 0.000000 0.000000 0.789396 -0.539689 -0.281793 0.000000 0.000000 0.000000 -0.000000 0.000000 0.000000 -0.000000 0.000000 0.000000 0.147544 -0.638211 -0.639622 -0.825748 -2.750936 1.720279 0.000000 0.000000 0.000000 0.000000 0.000000 0.000000 -0.000000 0.000000 0.000000 -0.000000 0.000000 0.000000 -0.738194 -1.042392 -0.063668 0.737157 1.043125 0.050242 0.000000 0.000000 0.000000 0.000000 0.000000 0.000000 -0.030340 0.336033 -58.320369 -0.657388 -1.324990 0.150325 1.213281 3.743791 1.466534 0.000000 0.000000 0.000000 -0.030340 0.336033 -58.320369 -0.000000 0.000000 0.000000 -16.506800 -1.629918 0.116837 0.000000 0.000000 0.000000
55.458003 81.406960 225.214219 0.413971 -0.227381 58.582689 -0.021749 0.471806 -58.581778 -0.000000 0.000000 0.000000 1.116343 -0.769113 -0.395975 0.000000 0.000000 0.000000 -0.000000 0.000000 0.000000 -0.000000 0.000000 0.000000 0.209457 -1.013942 -0.811347 -1.022220 -3.537480 2.252079 0.000000 0.000000 0.000000 0.000000 0.000000 0.000000 -0.000000 0.000000 0.000000 -0.539572 -0.713464 0.254575 -0.441330 -0.572603 -0.356593 -0.079934 1.353637 -0.032916 0.000000 0.000000 0.000000 0.000000 0.000000 0.000000 -0.021749 0.471806 -58.581778 -0.486303 -1.504034 0.158504 1.202127 4.666237 1.379694 0.000000 0.000000 0.000000 -0.021749 0.471806 -58.581778 -0.000000 0.000000 0.000000 -23.302270 -2.180055 -0.022013 0.000000 0.000000 0.000000
55.541625 81.504371 225.186602 0.499215 -0.304779 58.741277 0.001483 0.584894 -58.739957 -0.000000 0.000000 0.000000 1.399032 -0.971645 -0.493270 0.000000 0.000000 0.000000 -0.000000 0.000000 0.000000 -0.000000 0.000000 0.000000 0.264707 -1.430268 -0.883189 -1.108101 -3.964231 2.581503 0.000000 0.000000 0.000000 0.000000 0.000000 0.000000 -0.504508 -0.534927 0.353929 -0.177162 -0.380685 -0.024874 -0.461793 -0.441276 -0.477002 -0.396895 1.228762 0.068616 0.000000 0.000000 0.000000 0.000000 0.000000 0.000000 0.001483 0.584894 -58.739957 0.016425 -1.362900 0.124291 0.792571 4.952355 0.754005 0.000000 0.000000 0.000000 0.001483 0.584894 -58.739957 -0.000000 0.000000 0.000000 -28.473568 -2.470230 -0.213564 0.000000 0.000000 0.000000
55.604363 81.575738 225.167488 0.557114 -0.382642 58.794714 0.038625 0.674755 -58.793081 -0.000000 0.000000 0.000000 1.638031 -1.147334 -0.574253 0.000000 0.000000 0.000000 -0.000000 0.000000 0.000000 -0.000000 0.000000 0.000000 0.314438 -1.889895 -0.853088 -1.098627 -4.050831 2.714164 0.000000 0.000000 0.000000 0.000000 0.000000 0.000000 -0.548255 -0.627136 0.404812 -0.251740 -0.470607 -0.008548 -0.426114 -0.162395 -0.596747 -0.848019 0.824336 0.220553 0.000000 0.000000 0.000000 0.000000 0.000000 0.000000 -0.761743 0.543799 -58.432280 1.154292 -0.156692 -0.323278 -0.015778 4.598689 -0.413266 0.000000 0.000000 0.000000 0.038625 0.674755 -58.793081 -0.000000 0.000000 0.000000 -31.831223 -2.490463 -0.405301 0.000000 0.000000 0.000000
55.664412 81.661555 225.146670 0.604217 -0.451743 58.772771 0.073034 0.750872 -58.770868 -0.000000 0.000000 0.000000 1.820568 -1.346165 -0.625934 0.000000 0.000000 0.000000 -0.000000 0.000000 0.000000 -0.000000 0.000000 0.000000 0.383866 -2.615667 -0.699505 -1.026604 -3.302191 2.551724 0.000000 0.000000 0.000000 0.000000 0.000000 0.000000 -0.523063 -0.704618 0.433821 -0.393769 -0.591011 0.037630 -0.105138 0.460942 -0.686854 -2.110468 -0.612828 0.590751 0.000000 0.000000 0.000000 0.000000 0.000000 0.000000 -1.145770 0.424088 -58.231384 3.108569 1.530035 -0.780800 -1.872115 3.383334 -3.400780 0.000000 0.000000 0.000000 0.073034 0.750872 -58.770868 -0.000000 0.000000 0.000000 -35.985792 -1.616643 -0.907858 0.000000 0.000000 0.000000
55.689170 81.680859 225.167466 0.604123 -0.549669 58.566181 0.153931 0.802120 -58.564361 -0.000000 0.000000 0.000000 1.957793 -1.483343 -0.666313 0.000000 0.000000 0.000000 -0.000000 0.000000 0.000000 -0.000000 0.000000 0.000000 0.452196 -3.434645 -0.377611 -0.798660 -2.602097 2.240838 0.000000 0.000000 0.000000 0.000000 0.000000 0.000000 -0.469651 -0.763223 0.448217 -0.521327 -0.675806 0.079525 0.113255 0.967864 -0.769617 -2.601141 -1.322176 0.718857 0.000000 0.000000 0.000000 0.000000 0.000000 0.000000 -1.601455 0.379998 -57.781602 5.172527 3.767161 -1.442022 -3.476166 2.210479 -6.360070 0.000000 0.000000 0.000000 0.153931 0.802120 -58.564361 -0.000000 0.000000 0.000000 -37.586801 -1.469514 -1.027947 0.000000 0.000000 0.000000
55.658141 81.626570 225.163368 0.536071 -0.618193 58.185285 0.242706 0.781422 -58.184048 0.399012 -0.762308 0.021040 1.676078 -0.794167 -0.751204 0.000000 0.000000 0.000000 -0.398767 0.762436 -0.015732 -0.000000 0.000000 0.000000 0.485645 -4.100812 0.211075 -0.462922 -0.874493 1.290023 0.000000 0.000000 0.000000 0.000000 0.000000 0.000000 -0.818596 -0.039407 0.444375 -0.615182 -0.731262 0.111045 0.279085 1.690464 -0.903337 -2.369812 -1.724176 0.720012 0.000000 0.000000 0.000000 0.000000 0.000000 0.000000 -1.472121 0.385709 -57.416370 3.861002 7.120354 -1.691383 -3.312192 -5.674540 -6.087140 0.000000 0.000000 0.000000 0.242706 0.781422 -58.184048 -0.000000 0.000000 0.000000 -36.172396 0.778484 -1.629711 0.000000 0.000000 0.000000
55.638833 81.604541 225.159287 0.503874 -0.675054 57.871760 0.303706 0.785712 -57.870874 0.419469 -0.814468 0.022066 1.739710 -0.762884 -0.788935 0.000000 0.000000 0.000000 -0.419198 0.814608 -0.016104 -0.000000 0.000000 0.000000 0.486833 -4.405471 0.696697 0.382657 -1.615003 0.980463 0.000000 0.000000 0.000000 0.000000 0.000000 0.000000 -0.806172 -0.024940 0.453572 -0.652903 -0.743587 0.124045 0.193696 2.225540 -1.067796 -2.927806 -1.972831 0.649434 0.000000 0.000000 0.000000 0.000000 0.000000 0.000000 -1.272064 0.206476 -57.181553 4.300179 6.545218 -1.631463 -4.515613 -6.935038 -6.608397 0.000000 0.000000 0.000000 0.303706 0.785712 -57.870874 -0.000000 0.000000 0.000000 -31.374876 -2.252563 -0.460150 0.000000 0.000000 0.000000
55.612867 81.566104 225.156489 0.475744 -0.721675 57.607973 -0.120265 0.114648 -57.599474 0.123154 -0.086842 0.015246 1.779602 -0.720301 -0.818864 0.000000 0.000000 0.000000 -0.437375 0.848785 -0.016693 -0.000000 0.000000 0.000000 0.480344 -4.424734 0.815083 0.444015 -0.705849 0.580912 0.000000 0.000000 0.000000 0.000000 0.000000 0.000000 -0.815377 -0.007600 0.458653 -0.617785 -0.722523 0.122232 -0.117955 2.762203 -1.288305 -4.350186 -2.871284 0.764965 0.000000 0.000000 0.000000 0.000000 0.000000 0.000000 -0.955890 -0.189641 -57.071508 5.855678 2.709806 -1.190600 -6.777374 -3.525601 -6.949146 0.000000 0.000000 0.000000 -0.301437 1.183989 -57.324237 0.687110 0.338518 -0.273918 -19.051041 -6.500646 2.255731 0.000000 0.000000 0.000000
55.580416 81.505825 225.153651 0.449536 -0.754020 57.403413 -0.095819 0.089256 -57.395155 0.133073 -0.067483 0.016402 1.786755 -0.703008 -0.833776 0.000000 0.000000 0.000000 -0.455485 0.854296 -0.017914 -0.000000 0.000000 0.000000 0.481683 -4.383644 0.727220 0.648351 -0.678898 0.613744 0.000000 0.000000 0.000000 0.000000 0.000000 0.000000 -0.838165 -0.014774 0.464253 -0.547169 -0.651574 0.097517 -0.533789 3.311218 -1.528911 -4.676983 -3.426295 0.863130 0.000000 0.000000 0.000000 0.000000 0.000000 0.000000 -0.568349 -0.744381 -57.068637 8.386987 -4.123387 -0.109078 -9.779794 4.253423 -6.779509 0.000000 0.000000 0.000000 -0.288938 1.184005 -57.107857 0.705392 0.355948 -0.285764 -10.351958 -5.938959 2.903610 0.000000 0.000000 0.000000
